<svg width="144" height="28" viewBox="0 0 144 28" fill="none" xmlns="http://www.w3.org/2000/svg">
<path d="M106.893 1.15967H106.139V26.435H106.893V1.15967Z" fill="#92979A"/>
<path fill-rule="evenodd" clip-rule="evenodd" d="M10.1392 8.52173V11.6522H21.5595V17.971H10.1392V25.3913C11.0087 25.7971 11.9363 26.1449 12.9218 26.3188C18.487 25.1594 23.7044 20.1739 23.8783 11.4203L23.9363 8.52173H10.1392Z" fill="#2D7D2F"/>
<path d="M23.8783 8.52201L23.9943 1.68143C20.3421 1.39158 16.6319 1.27563 12.8638 1.27563C9.09572 1.27563 5.38557 1.44955 1.7334 1.7394L1.79137 7.07274L1.90731 11.4206C1.90731 11.4206 1.96528 15.4785 3.29862 18.3771C5.55949 23.6524 10.1392 25.3916 10.1392 25.3916V17.9713H21.5595V11.6524H10.1392V8.52201H23.8783Z" fill="#72BF44"/>
<path d="M34.7765 6.08665V7.76781H38.1968V9.56491H34.7765V12.6374H32.5156V4.28955H38.4866V6.08665H34.7765Z" fill="white"/>
<path d="M44.6899 10.4345H42.9508V12.6374H40.6899V4.28955H45.0378C45.7334 4.28955 46.2552 4.34752 46.7189 4.52143C47.0668 4.63738 47.4146 4.86926 47.5885 5.21709C47.8204 5.56491 47.8783 6.08665 47.8783 6.7823C47.8783 7.36201 47.8783 7.76781 47.8204 8.11564C47.7624 8.40549 47.6465 8.69535 47.4146 8.86926C47.1827 9.10115 46.8349 9.27506 46.3131 9.391V9.50694C46.7769 9.50694 47.1827 9.68086 47.4146 9.91274C47.7044 10.1446 47.8204 10.5504 47.8204 11.0142V12.6953H45.6175V11.5359C45.6175 10.7823 45.2697 10.4345 44.6899 10.4345ZM42.9508 8.46346H44.6899C44.9798 8.46346 45.2117 8.40549 45.3276 8.34752C45.4436 8.28955 45.5595 8.17361 45.5595 7.9997C45.6175 7.82578 45.6175 7.53593 45.6175 7.1881C45.6175 6.7823 45.5595 6.55042 45.4436 6.43448C45.3276 6.31854 45.0957 6.26057 44.6899 6.26057H42.9508V8.46346Z" fill="white"/>
<path d="M52.5739 6.08665V7.65187H56.1101V9.15912H52.5739V10.8403H56.4579V12.6374H50.313V4.28955H56.342V6.08665H52.5739Z" fill="white"/>
<path d="M61.1536 6.08665V7.65187H64.7478V9.15912H61.1536V10.8403H65.0956V12.6374H58.9507V4.28955H64.9797V6.08665H61.1536Z" fill="white"/>
<path d="M67.4722 12.6374V4.28955H71.7041C72.5156 4.28955 73.1533 4.40549 73.6171 4.63738C74.1388 4.86926 74.4867 5.21709 74.7185 5.68086C74.9504 6.14462 75.0664 6.7823 75.0664 7.5939V9.33303C75.0664 10.1446 74.9504 10.7823 74.7765 11.2461C74.6026 11.7678 74.2548 12.1156 73.791 12.3475C73.3272 12.5794 72.7475 12.6953 71.9359 12.6953H67.4722V12.6374ZM69.733 6.20259V10.7243H71.7041C72.4577 10.7243 72.8635 10.2606 72.8635 9.27506V7.53593C72.8635 7.1881 72.8055 6.89825 72.7475 6.72433C72.6896 6.55042 72.5736 6.43448 72.3997 6.31854C72.2258 6.26057 71.9939 6.20259 71.762 6.20259H69.733Z" fill="white"/>
<path d="M81.1535 12.6961C80.5158 12.6961 79.994 12.6381 79.5303 12.5801C79.0665 12.5221 78.6607 12.3482 78.3129 12.1163C77.965 11.8845 77.7332 11.5946 77.5013 11.1888C77.3274 10.783 77.2114 10.2613 77.2114 9.62359V7.24678C77.2114 6.6091 77.3274 6.08736 77.5013 5.68156C77.6752 5.27577 77.965 4.98591 78.3129 4.75403C78.6607 4.52214 79.0665 4.4062 79.5303 4.29026C79.994 4.23229 80.5158 4.17432 81.1535 4.17432C81.7911 4.17432 82.3129 4.23229 82.7767 4.29026C83.2404 4.34823 83.6462 4.52214 83.994 4.75403C84.3419 4.98591 84.5738 5.27577 84.7477 5.68156C84.9216 6.08736 85.0375 6.6091 85.0375 7.24678V9.62359C85.0375 10.2613 84.9216 10.783 84.7477 11.1888C84.5738 11.5946 84.2839 11.8845 83.9361 12.1163C83.5882 12.3482 83.1824 12.4642 82.7187 12.5801C82.3129 12.6961 81.7911 12.6961 81.1535 12.6961ZM81.1535 10.783C81.5593 10.783 81.9071 10.725 82.139 10.6671C82.3709 10.6091 82.4868 10.4932 82.6027 10.2613C82.7187 10.0874 82.7767 9.73953 82.7767 9.33374V7.53663C82.7767 7.24678 82.7766 6.95692 82.7187 6.78301C82.6607 6.6091 82.6027 6.49316 82.4288 6.37721C82.3129 6.26127 82.139 6.2033 81.9651 6.2033C81.7911 6.2033 81.5013 6.14533 81.2114 6.14533C80.8056 6.14533 80.4578 6.2033 80.2839 6.26127C80.052 6.31924 79.9361 6.43519 79.8201 6.6091C79.7042 6.78301 79.6462 7.13084 79.6462 7.53663V9.44968C79.6462 9.85547 79.7042 10.1453 79.8201 10.3772C79.9361 10.5511 80.052 10.725 80.2839 10.783C80.3998 10.725 80.7477 10.783 81.1535 10.783Z" fill="white"/>
<path d="M89.3854 6.20259L89.6173 12.6374H87.3564V4.28955H90.9506L92.5159 9.50694H92.6318L94.139 4.28955H97.7912V12.6374H95.5304L95.7622 6.20259H95.6463L93.5593 12.6374H91.5883L89.4434 6.20259H89.3854Z" fill="white"/>
<path d="M35.3562 17.2176V17.9712H33.849V23.1306H32.9794V17.9712H32.1099V17.2756H32.9794V16.406C32.9794 15.7683 33.1533 15.3046 33.4432 15.0727C33.7331 14.8408 34.1968 14.6669 34.8925 14.6669L35.4142 14.7248V15.4785C35.2403 15.4785 35.1244 15.4205 34.9504 15.4205H34.7765C34.4287 15.4205 34.1968 15.4785 34.0809 15.6524C33.9649 15.8263 33.907 16.0582 33.907 16.406V17.3335H35.3562V17.2176Z" fill="white"/>
<path d="M37.7333 15.7104H36.8638V14.7249H37.7333V15.7104ZM37.7333 23.1307H36.8638V17.2756H37.7333V23.1307Z" fill="white"/>
<path d="M40.6318 19.5364V23.1306H39.7622V17.2755H40.5738V18.0291C40.8057 17.6813 41.0955 17.4494 41.4434 17.3335C41.7332 17.2175 42.139 17.1595 42.6028 17.1595C43.4144 17.1595 43.9361 17.3335 44.2839 17.6233C44.5738 17.9132 44.7477 18.4929 44.7477 19.2465V23.1306H43.8781V19.3624C43.8781 18.7827 43.7622 18.3769 43.5883 18.203C43.4144 18.0291 43.0086 17.9132 42.4289 17.9132C41.8492 17.9132 41.3854 18.0291 41.0955 18.319C40.8057 18.4929 40.6318 18.9566 40.6318 19.5364Z" fill="white"/>
<path d="M50.7186 20.232V19.4204C50.7186 18.7248 50.6027 18.261 50.4288 18.0871C50.2548 17.9132 49.7331 17.7972 49.0375 17.7972C48.5157 17.7972 48.1099 17.8552 47.936 17.9711C47.7621 18.0871 47.6461 18.319 47.6461 18.6668V18.8407H46.7766C46.7766 18.0871 47.0085 17.6233 47.4143 17.3914C47.7041 17.2175 48.2838 17.1595 49.0954 17.1595C50.023 17.1595 50.6606 17.2755 51.0085 17.5074C51.4722 17.7972 51.7041 18.3769 51.7041 19.2465V23.1306H50.8925L50.9505 22.3769C50.7186 22.7248 50.5447 22.9566 50.2548 23.0726C50.023 23.1885 49.5592 23.2465 48.9795 23.2465C48.1679 23.2465 47.5882 23.1306 47.2983 22.8987C46.8925 22.6088 46.6606 22.0871 46.6606 21.3335C46.6606 20.6378 46.8346 20.1161 47.2404 19.8842C47.5882 19.6523 48.1099 19.5364 48.8635 19.5364C49.5592 19.5364 50.023 19.5943 50.2548 19.6523C50.3708 19.8262 50.6027 20.0001 50.7186 20.232ZM50.7186 21.3914C50.7186 20.8697 50.6027 20.5798 50.3708 20.4059C50.1389 20.29 49.6172 20.232 48.8056 20.232C48.3418 20.232 47.994 20.29 47.8201 20.4059C47.5882 20.5798 47.4722 20.8117 47.4722 21.2175C47.4722 21.6813 47.5882 22.0291 47.7621 22.203C47.936 22.3769 48.3418 22.4929 48.8056 22.4929C49.5012 22.4929 49.965 22.4349 50.1969 22.319C50.5447 22.261 50.7186 21.9132 50.7186 21.3914Z" fill="white"/>
<path d="M54.4868 19.5364V23.1306H53.6172V17.2755H54.4288V18.0291C54.6607 17.6813 54.9505 17.4494 55.2983 17.3335C55.5882 17.2175 55.994 17.1595 56.4578 17.1595C57.2694 17.1595 57.7911 17.3335 58.1389 17.6233C58.4288 17.9132 58.6027 18.4929 58.6027 19.2465V23.1306H57.7331V19.3624C57.7331 18.7827 57.6172 18.3769 57.4433 18.203C57.2694 18.0291 56.8636 17.9132 56.2839 17.9132C55.7041 17.9132 55.2404 18.0291 54.9505 18.319C54.6607 18.4929 54.4868 18.9566 54.4868 19.5364Z" fill="white"/>
<path d="M64.6316 20.9856H65.5011C65.5011 21.8552 65.3272 22.4929 64.9214 22.7827C64.5736 23.0726 63.9359 23.2465 63.0084 23.2465C62.0229 23.2465 61.3852 23.0146 61.0374 22.6088C60.6895 22.203 60.5156 21.3914 60.5156 20.232C60.5156 19.0726 60.6895 18.261 61.0374 17.8552C61.3852 17.4494 62.0229 17.2175 63.0084 17.2175C63.82 17.2175 64.3997 17.3335 64.8055 17.5654C65.2692 17.8552 65.5011 18.319 65.5011 19.0146V19.1885H64.6316C64.6316 18.7248 64.5156 18.3769 64.3417 18.203C64.1098 18.0291 63.704 17.9132 63.0084 17.9132C62.3707 17.9132 61.9069 18.0291 61.733 18.319C61.5591 18.6088 61.4432 19.2465 61.4432 20.1741C61.4432 21.1016 61.5591 21.7393 61.791 22.0291C62.0229 22.319 62.4287 22.4929 63.0663 22.4929C63.762 22.4929 64.2258 22.3769 64.3997 22.203C64.5736 22.0291 64.6316 21.6233 64.6316 20.9856Z" fill="white"/>
<path d="M72.2839 20.348H68.052C68.052 21.2175 68.168 21.7972 68.3999 22.0871C68.6318 22.3769 69.0376 22.4929 69.7332 22.4929C70.4289 22.4929 70.8926 22.4349 71.0666 22.319C71.2984 22.203 71.3564 21.9132 71.3564 21.5074V21.3335H72.226C72.226 22.1451 71.9941 22.6668 71.5883 22.8987C71.2405 23.1306 70.6028 23.2465 69.6752 23.2465C68.6897 23.2465 67.9941 23.0146 67.6463 22.6088C67.2984 22.203 67.1245 21.3914 67.1245 20.174C67.1245 19.0146 67.2984 18.261 67.7042 17.7972C68.11 17.3335 68.7477 17.1595 69.6752 17.1595C70.6028 17.1595 71.2405 17.3914 71.6463 17.7972C72.0521 18.203 72.226 18.8987 72.226 19.9422L72.2839 20.348ZM71.4144 19.6523C71.4144 18.9566 71.2984 18.4929 71.0666 18.261C70.8347 17.9711 70.3709 17.8552 69.7332 17.8552C69.0955 17.8552 68.6897 17.9711 68.4578 18.261C68.226 18.5509 68.11 19.0146 68.11 19.6523H71.4144Z" fill="white"/>
<path d="M119.298 8.9276V9.79716H115.762V12.0001C115.994 11.9421 116.516 11.9421 116.748 11.9421C117.501 11.9421 118.255 12.116 118.835 12.4638C119.472 12.8696 119.878 13.5073 119.878 14.4348C119.878 15.1885 119.646 15.7682 119.182 16.174C118.545 16.8117 117.443 17.1015 116.284 17.1015C115.53 17.1015 115.008 17.0435 114.661 16.9856V8.86963H119.298V8.9276ZM115.762 16.2899C115.994 16.3479 116.284 16.3479 116.632 16.3479C117.269 16.3479 117.965 16.116 118.371 15.7102C118.661 15.4204 118.835 15.0146 118.835 14.4928C118.835 13.8551 118.545 13.4493 118.197 13.1595C117.791 12.8696 117.211 12.7537 116.632 12.7537C116.4 12.7537 116.052 12.7537 115.82 12.8117V16.2899H115.762Z" fill="white"/>
<path d="M124.516 17.0434L124.458 16.2898H124.4C124.052 16.7535 123.472 17.1593 122.603 17.1593C121.443 17.1593 120.806 16.3478 120.806 15.4782C120.806 14.0869 122.081 13.2753 124.342 13.2753V13.1593C124.342 12.6956 124.226 11.826 123.009 11.826C122.487 11.826 121.907 11.9999 121.501 12.2898L121.269 11.5941C121.733 11.3043 122.429 11.0724 123.182 11.0724C124.98 11.0724 125.385 12.2898 125.385 13.4492V15.6521C125.385 16.1738 125.385 16.6376 125.501 17.0434H124.516ZM124.342 14.0869C123.182 14.0869 121.849 14.2608 121.849 15.4202C121.849 16.1159 122.313 16.4637 122.835 16.4637C123.588 16.4637 124.052 15.9999 124.226 15.4782C124.284 15.3622 124.284 15.2463 124.284 15.1304V14.0869H124.342Z" fill="white"/>
<path d="M128.11 11.2463V13.6231H130.893V11.2463H131.936V17.1014H130.893V14.4347H128.11V17.1014H127.066V11.2463H128.11Z" fill="white"/>
<path d="M134.719 11.2463V13.7971H134.951L137.154 11.2463H138.429L135.878 13.913C136.806 14.0289 137.385 14.6666 137.849 15.7101C138.023 16.1159 138.197 16.6376 138.487 17.1594H137.385C137.212 16.9275 137.038 16.4637 136.864 15.942C136.458 15.0145 135.936 14.5507 134.951 14.5507H134.719V17.1014H133.675V11.2463H134.719Z" fill="white"/>
</svg>
