<svg width="107" height="28" viewBox="0 0 107 28" fill="none" xmlns="http://www.w3.org/2000/svg">
<path d="M36.1439 5.32224V7.11252L39.918 7.11252V9.14472H36.1439V12.5801H33.6763V3.29004L40.2567 3.29004V5.32224L36.1439 5.32224Z" fill="white"/>
<path d="M45.29 7.93508L47.2254 7.93508C47.5641 7.93508 47.806 7.88667 47.9512 7.7899C48.0963 7.69312 48.1931 7.54797 48.2415 7.40282C48.2899 7.20927 48.2899 6.91896 48.2899 6.48349C48.2899 6.04802 48.2415 5.8061 48.0963 5.66095C47.9512 5.51579 47.6609 5.41902 47.2738 5.41902H45.3384V7.93508H45.29ZM47.177 10.1124H45.2416V12.5801H42.7739V3.29004L47.5641 3.29004C48.3383 3.29004 48.9189 3.38681 49.4028 3.53197C49.8382 3.67712 50.1769 3.96744 50.4189 4.35453C50.6608 4.74161 50.7576 5.32224 50.7576 6.09641C50.7576 6.72543 50.7092 7.20927 50.6608 7.54797C50.6124 7.88667 50.4672 8.177 50.1769 8.41893C49.935 8.66086 49.4995 8.85438 48.9673 8.99954V9.09631C49.4995 9.09631 49.8866 9.24148 50.1769 9.5318C50.4672 9.82211 50.6124 10.2092 50.6124 10.7414V12.6285H48.1447V11.3221C48.1931 10.4995 47.8544 10.1124 47.177 10.1124Z" fill="white"/>
<path d="M55.9818 5.32224V7.01574L59.9494 7.01574V8.70924H55.9818V10.5479H60.2882V12.5801H53.5142V3.29004L60.1914 3.29004V5.32224L55.9818 5.32224Z" fill="white"/>
<path d="M65.6601 5.32224V7.01574L69.5793 7.01574V8.70924H65.6601V10.5479H69.9664V12.5801H63.144V3.29004L69.8696 3.29004V5.32224L65.6601 5.32224Z" fill="white"/>
<path d="M75.1908 5.41902V10.4027H77.3682C78.1907 10.4027 78.6262 9.8705 78.6262 8.80601V6.87059C78.6262 6.4835 78.5778 6.19318 78.481 5.95125C78.3843 5.75771 78.2875 5.61255 78.094 5.51578C77.9004 5.41901 77.6585 5.41902 77.3682 5.41902H75.1908ZM72.7231 12.5801V3.29004L77.4166 3.29004C78.2875 3.29004 79.0133 3.38682 79.5455 3.62874C80.0778 3.87067 80.5132 4.25775 80.7552 4.79C80.9971 5.32224 81.1423 5.99965 81.1423 6.87059V8.80601C81.1423 9.67696 81.0455 10.4027 80.8036 10.935C80.61 11.4672 80.2229 11.9027 79.7391 12.1446C79.2552 12.4349 78.5778 12.5317 77.7069 12.5317H72.7231V12.5801Z" fill="white"/>
<path d="M87.965 10.4995C88.4488 10.4995 88.7875 10.4511 89.0295 10.4027C89.2714 10.3543 89.4165 10.2091 89.5617 9.96721C89.6585 9.77367 89.7068 9.43498 89.7068 8.95112V6.87055C89.7068 6.53185 89.6585 6.24153 89.6101 6.04799C89.5617 5.85444 89.4649 5.70929 89.3198 5.61252C89.1746 5.51575 89.0295 5.46736 88.7875 5.41898C88.594 5.37059 88.3037 5.37059 87.9166 5.37059C87.4327 5.37059 87.094 5.41897 86.8521 5.46735C86.6102 5.51574 86.465 5.66091 86.3199 5.90283C86.2231 6.09638 86.1747 6.43506 86.1263 6.91892V8.9995C86.1263 9.43497 86.2231 9.77368 86.3199 10.0156C86.4166 10.2092 86.6102 10.3543 86.8521 10.4511C87.1424 10.4511 87.4811 10.4995 87.965 10.4995ZM87.965 12.6284C87.2876 12.6284 86.6586 12.58 86.1747 12.4833C85.6908 12.3865 85.207 12.2414 84.8683 11.951C84.4812 11.7091 84.1909 11.3704 83.9973 10.8865C83.8038 10.4511 83.707 9.87045 83.707 9.19305V6.58023C83.707 5.90283 83.8038 5.3222 83.9973 4.88673C84.1909 4.45126 84.4812 4.06417 84.8683 3.82224C85.2554 3.58032 85.6908 3.38677 86.1747 3.33839C86.6586 3.24162 87.2876 3.19324 87.965 3.19324C88.6424 3.19324 89.2714 3.24162 89.7552 3.33839C90.2875 3.43516 90.7229 3.58032 91.0616 3.82224C91.4487 4.06417 91.739 4.40288 91.9326 4.88673C92.1261 5.3222 92.2229 5.90283 92.2229 6.58023V9.19305C92.2229 9.87045 92.1261 10.4511 91.9326 10.8865C91.739 11.322 91.4487 11.6607 91.0616 11.951C90.6746 12.193 90.2391 12.3865 89.7552 12.4833C89.223 12.58 88.6424 12.6284 87.965 12.6284Z" fill="white"/>
<path d="M97.1603 5.41902L97.4022 12.5801H94.9346V3.29004L98.8538 3.29004L100.644 9.09632H100.741L102.386 3.29004L106.402 3.29004V12.5801H103.934L104.176 5.41902H104.128L101.757 12.5801H99.628L97.2571 5.41902H97.1603Z" fill="white"/>
<path d="M36.7256 17.612V18.4345H35.0321V24.1441H34.0644V18.4345H33.0967V17.612H34.0644V16.6443C34.0644 15.9185 34.2096 15.4346 34.5483 15.1443C34.887 14.854 35.4192 14.7089 36.145 14.7089C36.3385 14.7089 36.5321 14.7089 36.7256 14.7572V15.5798C36.5321 15.5314 36.2901 15.5314 36.0966 15.5314C35.7095 15.5314 35.4676 15.6282 35.3224 15.7733C35.1773 15.9185 35.0805 16.2088 35.0805 16.5959V17.612H36.7256Z" fill="white"/>
<path d="M39.435 24.0958H38.4673V17.6121H39.435V24.0958ZM39.435 15.9186H38.4673V14.8541H39.435V15.9186Z" fill="white"/>
<path d="M42.7255 17.6122V18.338C42.919 17.9993 43.2093 17.7574 43.5964 17.6122C43.8383 17.5155 44.2738 17.467 44.8061 17.467C45.7254 17.467 46.3544 17.6122 46.7415 17.9509C47.0802 18.2896 47.2737 18.9186 47.2737 19.8379V24.0475H46.306V19.6444C46.306 19.0638 46.2092 18.6767 45.9673 18.5315C45.7254 18.338 45.3383 18.2412 44.7577 18.2412C43.9835 18.2412 43.4513 18.3864 43.1609 18.6767C42.919 18.967 42.7739 19.5476 42.7739 20.3218V24.0475H41.8062V17.5638H42.7255V17.6122Z" fill="white"/>
<path d="M54.0005 22.2089C54.0005 21.6283 53.8553 21.2896 53.6134 21.1444C53.3715 20.9993 52.7425 20.9509 51.8715 20.9509C51.3393 20.9509 50.9522 20.9993 50.7587 21.1444C50.5167 21.2896 50.3716 21.6283 50.3716 22.0637C50.3716 22.596 50.4683 22.9831 50.7103 23.1766C50.9522 23.3702 51.3393 23.4669 51.8715 23.4669C52.6457 23.4669 53.1295 23.4185 53.4199 23.2734C53.7586 23.0798 54.0005 22.7412 54.0005 22.2089ZM50.5651 19.4025H49.5974C49.5974 18.58 49.8393 18.0477 50.3232 17.8058C50.6619 17.6123 51.2909 17.5155 52.1618 17.5155C53.1779 17.5155 53.8553 17.6607 54.2424 17.9026C54.7263 18.2413 54.9682 18.8703 54.9682 19.7896V24.1443H54.0489L54.0973 23.3218C53.8553 23.7089 53.6134 23.9992 53.3715 24.0959C53.0812 24.1927 52.5973 24.2411 51.9199 24.2411C51.049 24.2411 50.42 24.0959 50.0329 23.854C49.5974 23.5637 49.3555 22.9831 49.3555 22.1605C49.3555 21.3863 49.5974 20.8541 50.0329 20.5638C50.42 20.3219 51.0006 20.2251 51.8231 20.2251C52.5489 20.2251 53.0812 20.2735 53.3715 20.3702C53.6618 20.467 53.8553 20.6606 54.0005 20.9509V20.0316C54.0005 19.2574 53.9037 18.7735 53.6618 18.6284C53.4682 18.4348 52.936 18.3864 52.1135 18.3864C51.4844 18.3864 51.0974 18.4348 50.9038 18.5316C50.7103 18.6284 50.5651 18.8703 50.5651 19.2574V19.4025Z" fill="white"/>
<path d="M58.3056 17.6122V18.338C58.4991 17.9993 58.7894 17.7574 59.1765 17.6122C59.4184 17.5155 59.8539 17.467 60.3861 17.467C61.3055 17.467 61.9345 17.6122 62.3216 17.9509C62.6603 18.2896 62.8538 18.9186 62.8538 19.8379V24.0475H61.8861V19.6444C61.8861 19.0638 61.7893 18.6767 61.5474 18.5315C61.3055 18.338 60.9184 18.2412 60.3377 18.2412C59.5636 18.2412 59.0313 18.3864 58.741 18.6767C58.4991 18.967 58.3539 19.5476 58.3539 20.3218V24.0475H57.3862V17.5638H58.3056V17.6122Z" fill="white"/>
<path d="M69.5322 21.725H70.4999C70.4999 22.6927 70.258 23.3701 69.8225 23.7088C69.4354 24.0475 68.7096 24.1927 67.6935 24.1927C66.629 24.1927 65.9033 23.9508 65.5162 23.4669C65.1291 22.983 64.9355 22.1121 64.9355 20.8057C64.9355 19.4993 65.1291 18.6283 65.5162 18.1445C65.9033 17.6606 66.629 17.4187 67.6935 17.4187C68.6129 17.4187 69.2419 17.5639 69.6773 17.8058C70.1612 18.0961 70.4031 18.6767 70.4031 19.4509V19.6444H69.4354C69.4354 19.1122 69.3386 18.7251 69.1451 18.5316C68.9032 18.338 68.4193 18.1929 67.6935 18.1929C66.9677 18.1929 66.4839 18.338 66.242 18.6767C66 19.0154 65.9033 19.6928 65.9033 20.7089C65.9033 21.7734 66 22.4508 66.242 22.7895C66.4839 23.1282 66.9677 23.2733 67.6935 23.2733C68.4677 23.2733 68.9516 23.1766 69.1935 22.9347C69.4354 22.8863 69.5322 22.4024 69.5322 21.725Z" fill="white"/>
<path d="M73.3529 20.2734H77.0302C77.0302 19.4993 76.8851 19.0154 76.6431 18.7251C76.4012 18.4348 75.9174 18.2896 75.1916 18.2896C74.4658 18.2896 73.9819 18.4348 73.74 18.7251C73.4981 19.0154 73.3529 19.4993 73.3529 20.2734ZM78.0463 21.096H73.4013C73.4013 22.0637 73.4981 22.6927 73.74 22.983C73.9819 23.2733 74.4658 23.4185 75.24 23.4185C76.0141 23.4185 76.498 23.3701 76.7399 23.2249C76.9819 23.0798 77.0786 22.7895 77.0786 22.3056V22.1121H78.0463C78.0463 22.983 77.8044 23.5636 77.3205 23.854C76.9335 24.0959 76.2561 24.1927 75.24 24.1927C74.1271 24.1927 73.4013 23.9507 73.0142 23.4669C72.6271 22.983 72.4336 22.1121 72.4336 20.8057C72.4336 19.5476 72.6271 18.6767 73.0626 18.1928C73.4981 17.709 74.2239 17.467 75.24 17.467C76.2561 17.467 76.9818 17.709 77.4173 18.1445C77.8528 18.5799 78.0463 19.4025 78.0463 20.5154V21.096Z" fill="white"/>
<path d="M9.19329 7.98376L9.19329 11.4675H21.7736L21.7736 18.435L9.19329 18.435L9.19329 26.5638C10.161 26.9993 11.1771 27.3864 12.2416 27.5799C18.3382 26.3219 24.0961 20.8543 24.2896 11.1288L24.338 7.93538L9.19329 7.93538V7.98376Z" fill="#72BF44"/>
<path d="M24.3864 7.98363L24.4831 0.483856C20.4187 0.145157 16.3543 0 12.2416 0C8.12879 0 4.01601 0.145157 0 0.483856L0.0967716 6.33852L0.193542 11.1771C0.193542 11.1771 0.241928 15.6286 1.74188 18.822C4.20955 24.6283 9.24166 26.5637 9.24166 26.5637L9.24166 18.4349L21.8219 18.4349L21.8219 11.4674L9.19329 11.4675L9.19329 7.98376L24.3864 7.98363Z" fill="#72BF44"/>
<path d="M9.19336 7.98343V11.4672L21.7736 11.4672V18.4347H9.19336V26.5635C10.1611 26.999 11.1772 27.3861 12.2417 27.5796C18.3382 26.3216 24.0961 20.854 24.2897 11.1285L24.3381 7.93506L9.19336 7.93506V7.98343Z" fill="#2D7D2F"/>
<path d="M24.3864 7.98363L24.4831 0.483856C20.4187 0.145157 16.3543 0 12.2416 0C8.12879 0 4.01601 0.145157 0 0.483856L0.0967716 6.33852L0.193542 11.1771C0.193542 11.1771 0.241928 15.6286 1.74188 18.822C4.20955 24.6283 9.24166 26.5637 9.24166 26.5637L9.24166 18.4349L21.8219 18.4349L21.8219 11.4674H9.19327L9.19327 7.98363L24.3864 7.98363Z" fill="#72BF44"/>
</svg>
