<svg width="174" height="34" viewBox="0 0 174 34" fill="none" xmlns="http://www.w3.org/2000/svg">
<g clip-path="url(#clip0)">
<path d="M129.313 1.40771H128.397V32.0992H129.313V1.40771Z" fill="#92979A"/>
<path fill-rule="evenodd" clip-rule="evenodd" d="M11.8262 10.3477V14.1489H25.6937V21.8218H11.8262V30.8321C12.8821 31.3249 14.0084 31.7472 15.2051 31.9584C21.9628 30.5506 28.2982 24.4967 28.5094 13.8673L28.5798 10.3477H11.8262Z" fill="#2D7D2F"/>
<path d="M28.5094 10.348L28.6502 2.04158C24.2154 1.68961 19.7102 1.54883 15.1347 1.54883C10.5591 1.54883 6.05392 1.76001 1.61914 2.11198L1.68953 8.58817L1.83032 13.8677C1.83032 13.8677 1.90071 18.7952 3.51976 22.3149C6.2651 28.7207 11.8262 30.8325 11.8262 30.8325V21.8221H25.6937V14.1492H11.8262V10.348H28.5094Z" fill="#72BF44"/>
<path d="M41.7434 7.39118V9.43259H45.8966V11.6148H41.7434V15.3456H38.998V5.20898H46.2486V7.39118H41.7434Z" fill="black"/>
<path d="M53.7805 12.6707H51.6687V15.3456H48.9233V5.20898H54.2028C55.0476 5.20898 55.6811 5.27938 56.2443 5.49056C56.6666 5.63134 57.089 5.91292 57.3002 6.33528C57.5817 6.75764 57.6521 7.39118 57.6521 8.2359C57.6521 8.93983 57.6521 9.43259 57.5817 9.85495C57.5113 10.2069 57.3705 10.5589 57.089 10.7701C56.8074 11.0516 56.385 11.2628 55.7515 11.4036V11.5444C56.3146 11.5444 56.8074 11.7556 57.089 12.0371C57.4409 12.3187 57.5817 12.8115 57.5817 13.3746V15.416H54.9068V14.0082C54.9068 13.093 54.4844 12.6707 53.7805 12.6707ZM51.6687 10.2773H53.7805C54.1325 10.2773 54.414 10.2069 54.5548 10.1365C54.6956 10.0661 54.8364 9.92534 54.8364 9.71416C54.9068 9.50298 54.9068 9.15101 54.9068 8.72865C54.9068 8.2359 54.8364 7.95433 54.6956 7.81354C54.5548 7.67275 54.2732 7.60236 53.7805 7.60236H51.6687V10.2773Z" fill="black"/>
<path d="M63.3542 7.39118V9.2918H67.6482V11.122H63.3542V13.1634H68.0706V15.3456H60.6089V5.20898H67.9298V7.39118H63.3542Z" fill="black"/>
<path d="M73.7721 7.39118V9.2918H78.1365V11.122H73.7721V13.1634H78.5589V15.3456H71.0972V5.20898H78.4181V7.39118H73.7721Z" fill="black"/>
<path d="M81.4453 15.3456V5.20898H86.584C87.5695 5.20898 88.3439 5.34977 88.907 5.63134C89.5406 5.91292 89.9629 6.33528 90.2445 6.89843C90.5261 7.46157 90.6668 8.2359 90.6668 9.22141V11.3332C90.6668 12.3187 90.5261 13.093 90.3149 13.6562C90.1037 14.2897 89.6813 14.7121 89.1182 14.9937C88.555 15.2752 87.8511 15.416 86.8656 15.416H81.4453V15.3456ZM84.1907 7.53197V13.0226H86.584C87.4991 13.0226 87.9919 12.4595 87.9919 11.2628V9.15101C87.9919 8.72865 87.9215 8.37669 87.8511 8.16551C87.7807 7.95433 87.6399 7.81354 87.4287 7.67275C87.2176 7.60236 86.936 7.53197 86.6544 7.53197H84.1907Z" fill="black"/>
<path d="M98.0577 15.4162C97.2834 15.4162 96.6499 15.3458 96.0867 15.2754C95.5236 15.205 95.0308 14.9938 94.6085 14.7123C94.1861 14.4307 93.9045 14.0787 93.623 13.586C93.4118 13.0932 93.271 12.4597 93.271 11.6853V8.79921C93.271 8.02488 93.4118 7.39134 93.623 6.89859C93.8341 6.40583 94.1861 6.05387 94.6085 5.77229C95.0308 5.49072 95.5236 5.34993 96.0867 5.20915C96.6499 5.13875 97.2834 5.06836 98.0577 5.06836C98.8321 5.06836 99.4656 5.13875 100.029 5.20915C100.592 5.27954 101.085 5.49072 101.507 5.77229C101.929 6.05387 102.211 6.40583 102.422 6.89859C102.633 7.39134 102.774 8.02488 102.774 8.79921V11.6853C102.774 12.4597 102.633 13.0932 102.422 13.586C102.211 14.0787 101.859 14.4307 101.437 14.7123C101.014 14.9938 100.522 15.1346 99.9584 15.2754C99.4656 15.4162 98.8321 15.4162 98.0577 15.4162ZM98.0577 13.0932C98.5505 13.0932 98.9729 13.0228 99.2544 12.9524C99.536 12.882 99.6768 12.7412 99.8176 12.4597C99.9584 12.2485 100.029 11.8261 100.029 11.3334V9.15118C100.029 8.79921 100.029 8.44724 99.9584 8.23606C99.888 8.02488 99.8176 7.88409 99.6064 7.74331C99.4656 7.60252 99.2544 7.53213 99.0433 7.53213C98.8321 7.53213 98.4801 7.46173 98.1281 7.46173C97.6354 7.46173 97.213 7.53213 97.0018 7.60252C96.7203 7.67291 96.5795 7.8137 96.4387 8.02488C96.2979 8.23606 96.2275 8.65842 96.2275 9.15118V11.4742C96.2275 11.9669 96.2979 12.3189 96.4387 12.6005C96.5795 12.8116 96.7203 13.0228 97.0018 13.0932C97.1426 13.0228 97.565 13.0932 98.0577 13.0932Z" fill="black"/>
<path d="M108.054 7.53197L108.335 15.3456H105.59V5.20898H109.954L111.855 11.5444H111.996L113.826 5.20898H118.261V15.3456H115.515L115.797 7.53197H115.656L113.122 15.3456H110.729L108.124 7.53197H108.054Z" fill="black"/>
<path d="M42.4469 20.9069V21.822H40.6167V28.087H39.5608V21.822H38.5049V20.9773H39.5608V19.9214C39.5608 19.147 39.772 18.5839 40.1239 18.3023C40.4759 18.0208 41.039 17.8096 41.8838 17.8096L42.5173 17.88V18.7951C42.3061 18.7951 42.1653 18.7247 41.9542 18.7247H41.743C41.3206 18.7247 41.039 18.7951 40.8983 19.0063C40.7575 19.2174 40.6871 19.499 40.6871 19.9214V21.0477H42.4469V20.9069Z" fill="black"/>
<path d="M45.3332 19.0766H44.2773V17.8799H45.3332V19.0766ZM45.3332 28.0869H44.2773V20.9772H45.3332V28.0869Z" fill="black"/>
<path d="M48.8533 23.7226V28.0869H47.7974V20.9772H48.7829V21.8923C49.0644 21.47 49.4164 21.1884 49.8388 21.0476C50.1907 20.9068 50.6835 20.8364 51.2466 20.8364C52.2321 20.8364 52.8657 21.0476 53.288 21.3996C53.64 21.7515 53.8512 22.4555 53.8512 23.3706V28.0869H52.7953V23.5114C52.7953 22.8074 52.6545 22.3147 52.4433 22.1035C52.2321 21.8923 51.7394 21.7515 51.0355 21.7515C50.3315 21.7515 49.7684 21.8923 49.4164 22.2443C49.0644 22.4555 48.8533 23.0186 48.8533 23.7226Z" fill="black"/>
<path d="M61.1014 24.5673V23.5818C61.1014 22.737 60.9606 22.1739 60.7494 21.9627C60.5382 21.7515 59.9047 21.6108 59.06 21.6108C58.4264 21.6108 57.9337 21.6811 57.7225 21.8219C57.5113 21.9627 57.3705 22.2443 57.3705 22.6667V22.8778H56.3146C56.3146 21.9627 56.5962 21.3996 57.0889 21.118C57.4409 20.9068 58.1448 20.8364 59.1303 20.8364C60.2566 20.8364 61.031 20.9772 61.4533 21.2588C62.0165 21.6108 62.298 22.3147 62.298 23.3706V28.0869H61.3125L61.3829 27.1718C61.1014 27.5942 60.8902 27.8758 60.5382 28.0165C60.2566 28.1573 59.6935 28.2277 58.9896 28.2277C58.0041 28.2277 57.3001 28.0869 56.9482 27.8054C56.4554 27.4534 56.1738 26.8199 56.1738 25.9047C56.1738 25.06 56.385 24.4265 56.8778 24.1449C57.3001 23.8633 57.9337 23.7226 58.8488 23.7226C59.6935 23.7226 60.2566 23.7929 60.5382 23.8633C60.679 24.0745 60.9606 24.2857 61.1014 24.5673ZM61.1014 25.9751C61.1014 25.3416 60.9606 24.9896 60.679 24.7785C60.3974 24.6377 59.7639 24.5673 58.7784 24.5673C58.2152 24.5673 57.7929 24.6377 57.5817 24.7785C57.3001 24.9896 57.1593 25.2712 57.1593 25.764C57.1593 26.3271 57.3001 26.7495 57.5113 26.9606C57.7225 27.1718 58.2152 27.3126 58.7784 27.3126C59.6231 27.3126 60.1862 27.2422 60.4678 27.1014C60.8902 27.031 61.1014 26.6087 61.1014 25.9751Z" fill="black"/>
<path d="M65.677 23.7226V28.0869H64.6211V20.9772H65.6066V21.8923C65.8882 21.47 66.2401 21.1884 66.6625 21.0476C67.0145 20.9068 67.5072 20.8364 68.0704 20.8364C69.0559 20.8364 69.6894 21.0476 70.1118 21.3996C70.4637 21.7515 70.6749 22.4555 70.6749 23.3706V28.0869H69.619V23.5114C69.619 22.8074 69.4782 22.3147 69.2671 22.1035C69.0559 21.8923 68.5631 21.7515 67.8592 21.7515C67.1553 21.7515 66.5921 21.8923 66.2401 22.2443C65.8882 22.4555 65.677 23.0186 65.677 23.7226Z" fill="black"/>
<path d="M77.996 25.4823H79.0519C79.0519 26.5382 78.8407 27.3125 78.3479 27.6645C77.9256 28.0165 77.1513 28.2276 76.025 28.2276C74.8283 28.2276 74.0539 27.9461 73.6316 27.4533C73.2092 26.9606 72.998 25.9751 72.998 24.5672C72.998 23.1593 73.2092 22.1738 73.6316 21.6811C74.0539 21.1883 74.8283 20.9067 76.025 20.9067C77.0105 20.9067 77.7144 21.0475 78.2072 21.3291C78.7703 21.6811 79.0519 22.2442 79.0519 23.0889V23.3001H77.996C77.996 22.737 77.8552 22.3146 77.644 22.1034C77.3624 21.8922 76.8697 21.7515 76.025 21.7515C75.2506 21.7515 74.6875 21.8922 74.4763 22.2442C74.2651 22.5962 74.1243 23.3705 74.1243 24.4968C74.1243 25.6231 74.2651 26.3974 74.5467 26.7494C74.8283 27.1014 75.321 27.3125 76.0954 27.3125C76.9401 27.3125 77.5032 27.1717 77.7144 26.9606C77.9256 26.7494 77.996 26.2566 77.996 25.4823Z" fill="black"/>
<path d="M87.288 24.7081H82.1492C82.1492 25.764 82.29 26.4679 82.5716 26.8199C82.8532 27.1718 83.3459 27.3126 84.1907 27.3126C85.0354 27.3126 85.5985 27.2422 85.8097 27.1014C86.0913 26.9606 86.1617 26.6087 86.1617 26.1159V25.9047H87.2176C87.2176 26.8903 86.936 27.5238 86.4433 27.8054C86.0209 28.0869 85.2466 28.2277 84.1203 28.2277C82.9236 28.2277 82.0789 27.9462 81.6565 27.4534C81.2341 26.9606 81.0229 25.9751 81.0229 24.4969C81.0229 23.089 81.2341 22.1739 81.7269 21.6108C82.2196 21.0476 82.994 20.8364 84.1203 20.8364C85.2466 20.8364 86.0209 21.118 86.5136 21.6108C87.0064 22.1035 87.2176 22.9482 87.2176 24.2153L87.288 24.7081ZM86.2321 23.8633C86.2321 23.0186 86.0913 22.4555 85.8097 22.1739C85.5281 21.8219 84.965 21.6811 84.1907 21.6811C83.4163 21.6811 82.9236 21.8219 82.642 22.1739C82.3604 22.5259 82.2196 23.089 82.2196 23.8633H86.2321Z" fill="black"/>
<path d="M145.714 20.414C145.221 20.6252 144.306 20.9067 143.11 20.9067C140.294 20.9067 138.252 19.1469 138.252 15.9088C138.252 12.8115 140.364 10.6997 143.391 10.6997C144.658 10.6997 145.433 10.9813 145.714 11.1221L145.433 12.178C144.94 11.9668 144.236 11.7556 143.462 11.7556C141.139 11.7556 139.59 13.2339 139.59 15.8384C139.59 18.2318 140.998 19.7805 143.391 19.7805C144.165 19.7805 144.94 19.6397 145.503 19.3581L145.714 20.414Z" fill="black"/>
<path d="M148.6 10.8403V20.6954H147.333V10.8403H148.6Z" fill="black"/>
<path d="M150.783 10.9812C151.346 10.8404 152.191 10.77 153.106 10.77C154.373 10.77 155.217 10.9812 155.851 11.474C156.344 11.8259 156.696 12.4595 156.696 13.2338C156.696 14.2193 156.062 14.9936 155.006 15.416C155.921 15.6272 157.048 16.4015 157.048 17.8797C157.048 18.7245 156.696 19.358 156.203 19.8508C155.499 20.4843 154.373 20.7659 152.754 20.7659C151.839 20.7659 151.205 20.6955 150.783 20.6251V10.9812ZM152.12 14.9936H153.246C154.584 14.9936 155.358 14.2897 155.358 13.3042C155.358 12.1779 154.514 11.6851 153.176 11.6851C152.613 11.6851 152.261 11.7555 152.05 11.7555V14.9936H152.12ZM152.12 19.7804C152.402 19.8508 152.754 19.8508 153.176 19.8508C154.514 19.8508 155.71 19.358 155.71 17.9501C155.71 16.6127 154.584 16.0495 153.176 16.0495H152.12V19.7804Z" fill="black"/>
</g>
<defs>
<clipPath id="clip0">
<rect width="173.449" height="34" fill="white"/>
</clipPath>
</defs>
</svg>
