<svg width="24" height="24" viewBox="0 0 24 24" fill="none" xmlns="http://www.w3.org/2000/svg"><g clip-path="url(#clip0)"><path d="M21.171 19.738l.02-.024A11.942 11.942 0 0024 12c0-2.938-1.055-5.628-2.807-7.714-.006-.008-.014-.014-.019-.022-.03-.035-.056-.067-.086-.099l-.032-.037-.11-.126-.002-.003-.123-.137-.003-.002c-.086-.091-.172-.182-.26-.27l-.003-.003-.128-.129-.008-.008c-.04-.04-.08-.078-.12-.115a.648.648 0 00-.044-.04c-.026-.027-.053-.051-.08-.075-.008-.008-.019-.016-.027-.027A11.943 11.943 0 0012 0C8.853 0 5.99 1.21 3.85 3.193c-.009.008-.02.016-.028.027l-.08.077a.415.415 0 01-.043.04l-.12.116-.008.008-.129.128-.003.003c-.088.088-.174.18-.26.27l-.002.003a5.062 5.062 0 00-.123.137l-.003.002c-.038.04-.075.084-.11.126-.01.014-.021.024-.032.038-.03.032-.056.067-.086.099-.005.008-.013.013-.019.021A11.954 11.954 0 000 12c0 2.938 1.055 5.628 2.807 7.714.006.008.014.016.019.024l.083.1.032.037.11.126c0 .003.003.003.003.005.04.046.08.091.123.134l.002.003c.086.09.172.182.258.27l.002.003c.043.043.083.086.126.126l.008.008A11.977 11.977 0 0012 24a11.954 11.954 0 008.419-3.45l.008-.008c.043-.043.085-.083.126-.126l.002-.003c.089-.088.175-.18.258-.27l.002-.003c.04-.045.083-.088.123-.134 0-.002.003-.002.003-.005.038-.04.075-.083.11-.126l.032-.038c.03-.032.06-.065.088-.099zm.11-3.82a10.06 10.06 0 01-1.451 2.417 11.89 11.89 0 00-2.184-1.498c.311-1.256.504-2.635.555-4.087h3.844a10.015 10.015 0 01-.764 3.169zm.764-4.668H18.2a20.027 20.027 0 00-.555-4.088 11.897 11.897 0 002.183-1.497 10.013 10.013 0 012.216 5.585zm-6.126-8.531c1.063.45 2.03 1.071 2.882 1.853a10.57 10.57 0 01-1.591 1.12c-.42-1.205-.96-2.253-1.586-3.091.1.037.198.078.295.118zm-2.427 18.766c-.247.193-.493.34-.742.44v-4.97c1.063.075 2.108.311 3.1.702-.223.66-.48 1.267-.778 1.816-.466.868-1.012 1.562-1.58 2.012zm1.58-16.958c.295.552.555 1.16.777 1.816-.991.39-2.036.627-3.099.702V2.079c.246.099.495.243.742.439.568.447 1.114 1.14 1.58 2.009zM12.75 15.453V12.75h3.95a18.61 18.61 0 01-.436 3.423l-.008.032a11.919 11.919 0 00-3.506-.752zm0-4.203V8.547a11.92 11.92 0 003.506-.752l.008.032a18.58 18.58 0 01.437 3.423H12.75zm-1.5 1.5v2.703a11.919 11.919 0 00-3.506.752l-.008-.032a18.574 18.574 0 01-.437-3.423h3.951zm-3.95-1.5c.042-1.184.19-2.333.436-3.423l.008-.032c1.1.418 2.277.677 3.506.752v2.703H7.3zm3.95 5.705v4.966a2.997 2.997 0 01-.742-.439c-.568-.447-1.117-1.144-1.583-2.011a12.1 12.1 0 01-.777-1.817 10.454 10.454 0 013.102-.699zm0-9.91a10.423 10.423 0 01-3.1-.702c.223-.66.48-1.267.778-1.816.466-.868 1.012-1.565 1.583-2.012.246-.193.493-.34.742-.44v4.97h-.003zM8.081 2.719c.1-.04.196-.08.295-.118-.627.838-1.165 1.886-1.586 3.091a10.382 10.382 0 01-1.59-1.12A10.013 10.013 0 018.08 2.72zM2.72 8.08c.37-.873.857-1.682 1.452-2.416a11.84 11.84 0 002.183 1.497 20.025 20.025 0 00-.555 4.088H1.955c.08-1.095.338-2.159.764-3.169zm-.764 4.669H5.8c.051 1.452.244 2.831.555 4.087-.782.417-1.514.919-2.183 1.498a10.014 10.014 0 01-2.216-5.585zm6.126 8.531A10.014 10.014 0 015.2 19.428a10.573 10.573 0 011.591-1.12c.42 1.205.96 2.253 1.586 3.091a9.856 9.856 0 01-.295-.118zm7.838 0c-.1.04-.196.08-.295.118.627-.838 1.165-1.886 1.586-3.091a10.43 10.43 0 011.59 1.12 10.014 10.014 0 01-2.881 1.853z" fill="#2D7D2F"/></g><defs><clipPath id="clip0"><path fill="#fff" d="M0 0h24v24H0z"/></clipPath></defs></svg>