<svg width="40" height="40" viewBox="0 0 40 40" fill="none" xmlns="http://www.w3.org/2000/svg"><path d="M35.822 1.5h0A2.673 2.673 0 0138.5 4.174v31.648a2.675 2.675 0 01-2.676 2.678h0-31.65a2.675 2.675 0 01-1.891-.784l-.354.353.354-.353a2.676 2.676 0 01-.783-1.892v0-31.65A2.675 2.675 0 014.175 1.5h31.647zm-19.78 13.488h-.5v19.206h6.54v-9.32c0-1.43.266-2.518.778-3.236.492-.688 1.255-1.1 2.427-1.1.392 0 .696.09.94.243.244.155.458.395.637.744.366.714.552 1.825.552 3.35v9.319h6.54V23.637c0-2.725-.32-4.963-1.426-6.519-1.138-1.6-3.02-2.368-5.846-2.368-2.199 0-3.908.755-4.997 1.818v-1.58H16.04zm-10 18.47v.5h6.54V14.75h-6.54v18.707zm7.05-22.575a4.063 4.063 0 10-7.558-2.986 4.063 4.063 0 007.558 2.986z" fill="#fff" stroke="#fff"/></svg>