<svg width="107" height="28" viewBox="0 0 107 28" fill="none" xmlns="http://www.w3.org/2000/svg"><path d="M36.144 5.322v1.79h3.774v2.033h-3.774v3.435h-2.468V3.29h6.58v2.032h-4.112zm9.146 2.613h1.935c.34 0 .581-.048.726-.145a.753.753 0 00.29-.387c.049-.194.049-.484.049-.92 0-.435-.048-.677-.194-.822-.145-.145-.435-.242-.822-.242h-1.936v2.516h-.048zm1.887 2.177h-1.935v2.468h-2.468V3.29h4.79c.774 0 1.355.097 1.839.242.435.145.774.435 1.016.823.242.387.339.967.339 1.741 0 .63-.049 1.113-.097 1.452a1.328 1.328 0 01-.484.87c-.242.243-.678.436-1.21.582v.096c.532 0 .92.145 1.21.436.29.29.435.677.435 1.21v1.886h-2.467v-1.306c.048-.822-.29-1.21-.968-1.21zm8.805-4.79v1.694h3.967v1.693h-3.967v1.839h4.306v2.032h-6.774V3.29h6.677v2.032h-4.21zm9.678 0v1.694h3.92v1.693h-3.92v1.839h4.306v2.032h-6.822V3.29h6.726v2.032h-4.21zm9.53.097v4.984h2.178c.823 0 1.258-.533 1.258-1.597V6.871c0-.388-.048-.678-.145-.92-.097-.193-.194-.338-.387-.435-.194-.097-.435-.097-.726-.097h-2.177zm-2.467 7.161V3.29h4.694c.87 0 1.596.097 2.129.339.532.242.967.629 1.21 1.161.241.532.386 1.21.386 2.08v1.936c0 .871-.096 1.597-.338 2.129a2.19 2.19 0 01-1.065 1.21c-.484.29-1.161.387-2.032.387h-4.984v.048zm15.242-2.08c.484 0 .822-.049 1.064-.097.242-.049.388-.194.533-.436.097-.193.145-.532.145-1.016v-2.08c0-.34-.048-.63-.097-.823a.705.705 0 00-.29-.435c-.145-.097-.29-.146-.532-.194-.194-.048-.484-.048-.871-.048-.484 0-.823.048-1.065.096-.242.049-.387.194-.532.436-.097.193-.145.532-.194 1.016v2.08c0 .436.097.775.194 1.017.097.193.29.338.532.435.29 0 .63.048 1.113.048zm0 2.128c-.677 0-1.306-.048-1.79-.145-.484-.097-.968-.242-1.307-.532a2.136 2.136 0 01-.87-1.065c-.194-.435-.291-1.016-.291-1.693V6.58c0-.677.097-1.258.29-1.693.194-.436.484-.823.871-1.065s.823-.435 1.307-.484c.484-.096 1.113-.145 1.79-.145s1.306.049 1.79.145c.532.097.968.242 1.307.484.387.242.677.58.87 1.065.194.435.29 1.016.29 1.693v2.613c0 .677-.096 1.258-.29 1.694a2.654 2.654 0 01-.87 1.064 3.91 3.91 0 01-1.307.532 9.934 9.934 0 01-1.79.145zm9.195-7.209l.242 7.161h-2.467V3.29h3.919l1.79 5.806h.097l1.645-5.806h4.016v9.29h-2.468l.242-7.161h-.048l-2.371 7.161h-2.129l-2.37-7.161h-.098zM36.726 17.612v.823h-1.694v5.71h-.968v-5.71h-.967v-.823h.967v-.968c0-.725.146-1.21.484-1.5.339-.29.871-.435 1.597-.435.194 0 .387 0 .58.048v.823c-.193-.049-.435-.049-.628-.049-.388 0-.63.097-.775.242-.145.146-.242.436-.242.823v1.016h1.646zm2.709 6.484h-.968v-6.484h.968v6.484zm0-8.177h-.968v-1.065h.968v1.065zm3.29 1.693v.726c.194-.339.484-.58.871-.726.242-.096.678-.145 1.21-.145.92 0 1.548.145 1.936.484.338.339.532.968.532 1.887v4.21h-.968v-4.404c0-.58-.097-.967-.339-1.112-.242-.194-.629-.29-1.21-.29-.773 0-1.306.144-1.596.435-.242.29-.387.87-.387 1.645v3.726h-.968v-6.484h.92v.048zM54 22.209c0-.58-.145-.92-.387-1.065-.242-.145-.87-.193-1.742-.193-.532 0-.919.048-1.112.193-.242.146-.387.484-.387.92 0 .532.096.92.338 1.113.242.193.63.29 1.161.29.775 0 1.258-.048 1.549-.194.339-.193.58-.532.58-1.064zm-3.435-2.806h-.968c0-.823.242-1.355.726-1.597.339-.194.968-.29 1.839-.29 1.016 0 1.693.145 2.08.387.484.338.726.967.726 1.887v4.354h-.92l.05-.822c-.243.387-.485.677-.727.774-.29.097-.774.145-1.451.145-.871 0-1.5-.145-1.887-.387-.436-.29-.678-.87-.678-1.694 0-.774.242-1.306.678-1.596.387-.242.968-.339 1.79-.339.726 0 1.258.048 1.548.145.29.097.484.29.63.58v-.918c0-.775-.097-1.259-.34-1.404-.193-.193-.725-.242-1.547-.242-.63 0-1.017.049-1.21.146-.194.096-.339.338-.339.725v.145zm7.741-1.791v.726c.193-.339.483-.58.87-.726.242-.096.678-.145 1.21-.145.92 0 1.548.145 1.936.484.338.339.532.968.532 1.887v4.21h-.968v-4.404c0-.58-.097-.967-.339-1.112-.241-.194-.629-.29-1.21-.29-.773 0-1.306.144-1.596.435-.242.29-.387.87-.387 1.645v3.726h-.968v-6.484h.92v.048zm11.226 4.113h.968c0 .968-.242 1.645-.677 1.984-.388.338-1.113.484-2.13.484-1.064 0-1.79-.242-2.177-.726s-.58-1.355-.58-2.661c0-1.307.193-2.178.58-2.662.387-.483 1.113-.725 2.177-.725.92 0 1.549.145 1.984.387.484.29.726.87.726 1.645v.193h-.968c0-.532-.096-.919-.29-1.112-.242-.194-.726-.34-1.451-.34-.726 0-1.21.146-1.452.485-.242.338-.339 1.016-.339 2.032 0 1.064.097 1.742.339 2.08.242.34.726.484 1.451.484.775 0 1.259-.096 1.5-.338.242-.049.34-.533.34-1.21zm3.821-1.452h3.677c0-.774-.145-1.258-.387-1.548-.242-.29-.726-.435-1.451-.435-.726 0-1.21.145-1.452.435-.242.29-.387.774-.387 1.548zm4.693.823h-4.645c0 .968.097 1.597.339 1.887.242.29.726.436 1.5.436s1.258-.049 1.5-.194c.242-.145.339-.436.339-.92v-.193h.967c0 .871-.242 1.452-.726 1.742-.386.242-1.064.339-2.08.339-1.113 0-1.839-.242-2.226-.726s-.58-1.355-.58-2.661c0-1.258.193-2.13.629-2.613.435-.484 1.16-.726 2.177-.726 1.016 0 1.742.242 2.177.678.436.435.63 1.258.63 2.37v.581z" fill="#fff"/><path d="M9.193 7.984v3.483h12.58v6.968H9.194v8.129c.968.435 1.984.822 3.049 1.016 6.096-1.258 11.854-6.726 12.048-16.451l.048-3.194H9.193v.049z" fill="#72BF44"/><path d="M24.386 7.984l.097-7.5A147.06 147.06 0 0012.242 0C8.129 0 4.016.145 0 .484l.097 5.855.097 4.838s.048 4.452 1.548 7.645c2.468 5.806 7.5 7.742 7.5 7.742v-8.13h12.58v-6.967H9.193V7.984h15.193z" fill="#72BF44"/><path d="M9.193 7.983v3.484h12.58v6.968H9.194v8.129c.968.435 1.984.822 3.049 1.016 6.096-1.258 11.854-6.726 12.048-16.451l.048-3.194H9.193v.048z" fill="#2D7D2F"/><path d="M24.386 7.984l.097-7.5A147.06 147.06 0 0012.242 0C8.129 0 4.016.145 0 .484l.097 5.855.097 4.838s.048 4.452 1.548 7.645c2.468 5.806 7.5 7.742 7.5 7.742v-8.13h12.58v-6.967H9.193V7.984h15.193z" fill="#72BF44"/></svg>