<svg width="24" height="24" viewBox="0 0 24 24" fill="none" xmlns="http://www.w3.org/2000/svg"><path fill-rule="evenodd" clip-rule="evenodd" d="M.6 2.505A1.905 1.905 0 012.505.6h18.988A1.904 1.904 0 0123.4 2.505v18.988a1.904 1.904 0 01-1.906 1.907H2.504A1.905 1.905 0 01.6 21.494V2.504z" fill="#fff"/><path fill-rule="evenodd" clip-rule="evenodd" d="M.6 2.505A1.905 1.905 0 012.505.6h18.988A1.904 1.904 0 0123.4 2.505v18.988a1.904 1.904 0 01-1.906 1.907H2.504A1.905 1.905 0 01.6 21.494V2.504zm9.025 6.788h3.087v1.55c.446-.89 1.586-1.693 3.299-1.693 3.284 0 4.062 1.775 4.062 5.033v6.033H16.75v-5.291c0-1.855-.446-2.902-1.578-2.902-1.57 0-2.223 1.129-2.223 2.902v5.291H9.625V9.293zm-5.7 10.781h3.324V9.15H3.925v10.924zm3.8-14.487a2.138 2.138 0 11-4.275.094 2.138 2.138 0 014.275-.094z" fill="#3D3D3D"/></svg>