<svg width="40" height="40" viewBox="0 0 40 40" fill="none" xmlns="http://www.w3.org/2000/svg"><path d="M35.822 1.5h0a2.673 2.673 0 011.894.782l.353-.354-.353.354c.249.248.446.543.58.868l.462-.191-.462.191c.135.325.204.673.204 1.024v31.648a2.675 2.675 0 01-2.676 2.678h0-31.65A2.675 2.675 0 011.5 35.824v0-31.65A2.675 2.675 0 014.175 1.5h31.647z" fill="#fff" stroke="#fff"/><path d="M5 32h30V8H5v24zM5 8l15 12L35 8" fill="#3D3D3D"/><path d="M5 8l15 12L35 8M5 32h30V8H5v24z" stroke="#fff" stroke-width="2" stroke-linecap="round" stroke-linejoin="round"/></svg>