<svg width="24" height="24" viewBox="0 0 24 24" fill="none" xmlns="http://www.w3.org/2000/svg"><path d="M16.714 6.638V5.352a.215.215 0 00-.214-.214H6.214A.215.215 0 006 5.352v1.286c0 .118.096.214.214.214H16.5a.215.215 0 00.214-.214zm-10.5 2.357A.215.215 0 006 9.21v1.285c0 .118.096.215.214.215h4.929a.215.215 0 00.214-.215V9.21a.215.215 0 00-.214-.215H6.214zm3.857 12.107H3.857V2.245h15v9.215c0 .117.096.214.214.214h1.5a.215.215 0 00.215-.214V1.174a.856.856 0 00-.858-.857H2.787a.856.856 0 00-.858.857v21c0 .474.384.857.858.857h7.285a.215.215 0 00.215-.214v-1.5a.215.215 0 00-.215-.215zm11.939 1.38l-2.5-2.5a4.714 4.714 0 10-1.168 1.093l2.537 2.537a.209.209 0 00.15.062c.054 0 .11-.022.15-.062l.83-.83a.21.21 0 000-.3zm-6.26-2.344c-1.658 0-3-1.342-3-3s1.342-3 3-3 3 1.342 3 3-1.342 3-3 3z" fill="#2D7D2F"/></svg>