<svg width="144" height="28" viewBox="0 0 144 28" fill="none" xmlns="http://www.w3.org/2000/svg"><path d="M106.893 1.16h-.754v25.275h.754V1.16z" fill="#92979A"/><path fill-rule="evenodd" clip-rule="evenodd" d="M10.14 8.522v3.13h11.42v6.319H10.14v7.42c.869.406 1.796.754 2.782.928 5.565-1.16 10.782-6.145 10.956-14.899l.058-2.898H10.14z" fill="#2D7D2F"/><path d="M23.878 8.522l.116-6.84c-3.652-.29-7.362-.406-11.13-.406-3.768 0-7.478.174-11.13.463l.057 5.334.116 4.348s.058 4.058 1.392 6.956c2.26 5.275 6.84 7.015 6.84 7.015v-7.42h11.42v-6.32H10.14v-3.13h13.74z" fill="#72BF44"/><path d="M34.776 6.087v1.68h3.42v1.798h-3.42v3.072h-2.26V4.29h5.97v1.797h-3.71zm9.914 4.347h-1.74v2.203h-2.26V4.29h4.348c.695 0 1.217.058 1.68.231.349.116.697.348.87.696.232.348.29.87.29 1.565 0 .58 0 .986-.058 1.334-.058.29-.173.58-.405.753-.232.232-.58.406-1.102.522v.116c.464 0 .87.174 1.102.406.29.232.405.637.405 1.101v1.681h-2.203v-1.16c0-.753-.347-1.1-.927-1.1zm-1.74-1.97h1.74c.29 0 .522-.059.638-.116A.391.391 0 0045.559 8c.059-.174.059-.464.059-.812 0-.406-.059-.638-.174-.754-.116-.115-.348-.173-.754-.173h-1.74v2.202zm9.624-2.377v1.565h3.536v1.507h-3.536v1.681h3.884v1.797h-6.145V4.29h6.029v1.797h-3.768zm8.58 0v1.565h3.594v1.507h-3.594v1.681h3.942v1.797H58.95V4.29h6.029v1.797h-3.826zm6.318 6.55V4.29h4.232c.812 0 1.45.115 1.913.347.522.232.87.58 1.102 1.044.231.464.347 1.101.347 1.913v1.739c0 .812-.116 1.45-.29 1.913-.173.522-.521.87-.985 1.101-.464.232-1.043.348-1.855.348h-4.464v-.058zm2.261-6.434v4.521h1.971c.754 0 1.16-.463 1.16-1.449v-1.74c0-.347-.059-.637-.117-.81-.057-.175-.173-.29-.347-.406a2.084 2.084 0 00-.638-.116h-2.029zm11.42 6.493c-.637 0-1.159-.058-1.623-.116a2.812 2.812 0 01-1.217-.464c-.348-.232-.58-.521-.812-.927-.174-.406-.29-.928-.29-1.565V7.247c0-.638.116-1.16.29-1.565.174-.406.464-.696.812-.928.348-.232.754-.348 1.217-.464.464-.058.986-.116 1.623-.116.638 0 1.16.058 1.624.116.463.058.87.232 1.217.464.348.232.58.522.754.928.174.405.29.927.29 1.565v2.377c0 .637-.116 1.159-.29 1.565-.174.406-.464.695-.812.927-.348.232-.754.348-1.217.464-.406.116-.928.116-1.566.116zm0-1.913c.406 0 .754-.058.986-.116.232-.058.348-.174.464-.406.116-.174.174-.521.174-.927V7.537c0-.29 0-.58-.058-.754-.058-.174-.116-.29-.29-.406a.658.658 0 00-.464-.174c-.174 0-.464-.058-.754-.058-.405 0-.753.058-.927.116-.232.058-.348.174-.464.348-.116.174-.174.522-.174.928V9.45c0 .405.058.695.174.927.116.174.232.348.464.406.116-.058.464 0 .87 0zm8.232-4.58l.232 6.434h-2.26V4.29h3.594l1.565 5.217h.116l1.507-5.217h3.652v8.347h-2.26l.231-6.434h-.116l-2.087 6.434h-1.97l-2.146-6.434h-.058zM35.356 17.218v.753H33.85v5.16h-.87v-5.16h-.87v-.695h.87v-.87c0-.638.174-1.101.464-1.333.29-.232.754-.406 1.45-.406l.521.058v.754c-.174 0-.29-.058-.464-.058h-.174c-.347 0-.58.058-.695.231-.116.174-.174.406-.174.754v.928h1.45v-.116zm2.377-1.508h-.87v-.985h.87v.985zm0 7.42h-.87v-5.854h.87v5.855zm2.899-3.594v3.595h-.87v-5.855h.812v.753c.232-.348.522-.58.87-.695.29-.116.695-.174 1.159-.174.811 0 1.333.174 1.68.463.29.29.465.87.465 1.623v3.885h-.87v-3.769c0-.58-.116-.985-.29-1.159-.174-.174-.58-.29-1.16-.29-.579 0-1.043.116-1.332.406-.29.174-.464.638-.464 1.217zm10.087.696v-.812c0-.695-.116-1.159-.29-1.333-.174-.174-.696-.29-1.392-.29-.521 0-.927.058-1.101.174-.174.116-.29.348-.29.696v.174h-.87c0-.754.232-1.218.638-1.45.29-.173.87-.231 1.681-.231.928 0 1.566.116 1.913.347.464.29.696.87.696 1.74v3.884h-.812l.058-.754c-.231.348-.405.58-.695.696-.232.116-.696.174-1.276.174-.811 0-1.39-.116-1.68-.348-.407-.29-.638-.812-.638-1.566 0-.695.174-1.217.58-1.449.347-.232.869-.348 1.623-.348.695 0 1.159.058 1.39.116.117.174.349.348.465.58zm0 1.16c0-.522-.116-.812-.348-.986-.232-.116-.754-.174-1.565-.174-.464 0-.812.058-.986.174-.232.174-.348.406-.348.812 0 .463.116.811.29.985.174.174.58.29 1.044.29.695 0 1.159-.058 1.39-.174.349-.058.523-.406.523-.928zm3.768-1.856v3.595h-.87v-5.855h.812v.753c.232-.348.521-.58.87-.695.29-.116.695-.174 1.159-.174.811 0 1.333.174 1.68.463.29.29.465.87.465 1.623v3.885h-.87v-3.769c0-.58-.116-.985-.29-1.159-.174-.174-.58-.29-1.16-.29-.579 0-1.043.116-1.333.406-.29.174-.463.638-.463 1.217zm10.145 1.45h.87c0 .87-.175 1.507-.58 1.797-.348.29-.986.463-1.914.463-.985 0-1.623-.231-1.97-.637-.348-.406-.522-1.218-.522-2.377 0-1.16.174-1.971.521-2.377.348-.406.986-.637 1.971-.637.812 0 1.392.116 1.797.347.464.29.696.754.696 1.45v.174h-.87c0-.464-.115-.812-.29-.986-.231-.174-.637-.29-1.333-.29-.637 0-1.101.116-1.275.406-.174.29-.29.928-.29 1.855 0 .928.116 1.565.348 1.855.232.29.638.464 1.275.464.696 0 1.16-.116 1.334-.29.174-.174.232-.58.232-1.217zm7.652-.638h-4.232c0 .87.116 1.45.348 1.74.232.289.638.405 1.333.405.696 0 1.16-.058 1.334-.174.231-.116.29-.406.29-.812v-.174h.869c0 .812-.232 1.334-.638 1.566-.347.232-.985.348-1.913.348-.985 0-1.68-.232-2.029-.638-.348-.406-.522-1.218-.522-2.435 0-1.16.174-1.913.58-2.377.406-.463 1.044-.637 1.971-.637.928 0 1.566.231 1.971.637.406.406.58 1.102.58 2.145l.058.406zm-.87-.696c0-.695-.116-1.16-.347-1.391-.232-.29-.696-.406-1.334-.406-.638 0-1.043.116-1.275.406-.232.29-.348.754-.348 1.391h3.304zm47.884-10.724v.87h-3.536V12c.232-.058.754-.058.986-.058.753 0 1.507.174 2.087.522.637.406 1.043 1.043 1.043 1.97 0 .755-.232 1.334-.696 1.74-.637.638-1.739.928-2.898.928a9.842 9.842 0 01-1.623-.116V8.87h4.637v.058zm-3.536 7.362c.232.058.522.058.87.058.637 0 1.333-.232 1.739-.638.29-.29.464-.695.464-1.217 0-.638-.29-1.044-.638-1.334-.406-.29-.986-.405-1.565-.405-.232 0-.58 0-.812.058v3.478h-.058zm8.754.753l-.058-.753h-.058c-.348.463-.928.87-1.797.87-1.16 0-1.797-.812-1.797-1.682 0-1.391 1.275-2.203 3.536-2.203v-.116c0-.463-.116-1.333-1.333-1.333-.522 0-1.102.174-1.508.464l-.232-.696c.464-.29 1.16-.522 1.913-.522 1.798 0 2.203 1.218 2.203 2.377v2.203c0 .522 0 .986.116 1.391h-.985zm-.174-2.956c-1.16 0-2.493.174-2.493 1.333 0 .696.464 1.044.986 1.044a1.41 1.41 0 001.391-.986c.058-.116.058-.232.058-.348v-1.043h.058zm3.768-2.841v2.377h2.783v-2.377h1.043v5.855h-1.043v-2.666h-2.783V17.1h-1.044v-5.855h1.044zm6.609 0v2.551h.232l2.203-2.55h1.275l-2.551 2.666c.928.116 1.507.754 1.971 1.797.174.406.348.928.638 1.45h-1.102c-.173-.233-.347-.696-.521-1.218-.406-.928-.928-1.391-1.913-1.391h-.232v2.55h-1.044v-5.855h1.044z" fill="#fff"/></svg>