<svg width="174" height="34" viewBox="0 0 174 34" fill="none" xmlns="http://www.w3.org/2000/svg"><g clip-path="url(#clip0)"><path d="M129.313 1.408h-.916v30.691h.916V1.408z" fill="#92979A"/><path fill-rule="evenodd" clip-rule="evenodd" d="M11.826 10.348v3.8h13.868v7.674H11.826v9.01c1.056.493 2.182.915 3.38 1.126 6.757-1.407 13.092-7.461 13.303-18.09l.07-3.52H11.827z" fill="#2D7D2F"/><path d="M28.51 10.348l.14-8.306c-4.435-.352-8.94-.493-13.515-.493-4.576 0-9.081.211-13.516.563l.07 6.476.141 5.28s.07 4.927 1.69 8.447c2.745 6.406 8.306 8.517 8.306 8.517v-9.01h13.868V14.15H11.826v-3.801H28.51z" fill="#72BF44"/><path d="M41.743 7.391v2.042h4.154v2.182h-4.154v3.73h-2.745V5.21h7.25v2.182h-4.505zM53.78 12.67h-2.11v2.676h-2.746V5.209h5.28c.845 0 1.478.07 2.041.282.423.14.845.422 1.056.844.282.423.352 1.056.352 1.9 0 .705 0 1.198-.07 1.62-.07.352-.212.704-.493.915-.282.282-.704.493-1.337.634v.14c.563 0 1.055.212 1.337.493.352.282.493.774.493 1.338v2.041h-2.675v-1.408c0-.915-.423-1.337-1.126-1.337zm-2.111-2.393h2.112c.352 0 .633-.07.774-.14a.475.475 0 00.281-.423c.07-.211.07-.563.07-.985 0-.493-.07-.775-.21-.915-.141-.141-.423-.212-.915-.212h-2.112v2.675zm11.685-2.886v1.9h4.294v1.831h-4.294v2.041h4.717v2.183h-7.462V5.209h7.32v2.182h-4.575zm10.418 0v1.9h4.364v1.831h-4.364v2.041h4.787v2.183h-7.462V5.209h7.321v2.182h-4.646zm7.673 7.955V5.209h5.139c.986 0 1.76.14 2.323.422a2.616 2.616 0 011.338 1.267c.281.564.422 1.338.422 2.323v2.112c0 .986-.14 1.76-.352 2.323-.211.634-.634 1.056-1.197 1.338-.563.281-1.267.422-2.252.422h-5.42v-.07zm2.746-7.814v5.49h2.393c.915 0 1.408-.563 1.408-1.76v-2.11c0-.422-.07-.774-.14-.985-.071-.212-.212-.352-.423-.493a2.53 2.53 0 00-.775-.141h-2.463zm13.867 7.884c-.775 0-1.408-.07-1.971-.14a3.415 3.415 0 01-1.478-.564c-.423-.281-.704-.633-.986-1.126-.211-.493-.352-1.126-.352-1.9V8.798c0-.774.14-1.408.352-1.9.211-.493.563-.845.986-1.127.422-.281.915-.422 1.478-.563.563-.07 1.196-.14 1.97-.14.775 0 1.409.07 1.972.14s1.056.282 1.478.563c.422.282.704.634.915 1.127.211.492.352 1.126.352 1.9v2.886c0 .775-.141 1.408-.352 1.901-.211.493-.563.845-.985 1.126-.423.282-.915.423-1.479.563-.492.141-1.126.141-1.9.141zm0-2.323c.492 0 .915-.07 1.196-.14.282-.071.423-.212.564-.493.14-.212.211-.634.211-1.127V9.151c0-.352 0-.704-.07-.915-.071-.211-.141-.352-.353-.493a.8.8 0 00-.563-.21c-.21 0-.563-.071-.915-.071-.493 0-.915.07-1.126.14-.282.07-.422.212-.563.423-.141.211-.211.633-.211 1.126v2.323c0 .493.07.845.21 1.127.141.21.282.422.564.492.14-.07.563 0 1.056 0zm9.996-5.561l.281 7.814h-2.745V5.209h4.364l1.901 6.335h.141l1.83-6.335h4.435v10.137h-2.746l.282-7.814h-.141l-2.534 7.814h-2.393l-2.605-7.814h-.07zM42.447 20.907v.915h-1.83v6.265H39.56v-6.265h-1.056v-.845h1.056v-1.056c0-.774.211-1.337.563-1.619.352-.281.915-.492 1.76-.492l.633.07v.915c-.21 0-.352-.07-.563-.07h-.211c-.422 0-.704.07-.845.281-.14.211-.21.493-.21.915v1.127h1.759v-.141zm2.886-1.83h-1.056V17.88h1.056v1.197zm0 9.01h-1.056v-7.11h1.056v7.11zm3.52-4.364v4.364h-1.056v-7.11h.986v.915c.281-.422.633-.704 1.056-.844.352-.141.845-.212 1.408-.212.985 0 1.619.212 2.041.564.352.352.563 1.056.563 1.97v4.717h-1.056V23.51c0-.704-.14-1.196-.352-1.407-.21-.212-.704-.352-1.407-.352-.705 0-1.268.14-1.62.492-.352.212-.563.775-.563 1.479zm12.248.844v-.985c0-.845-.14-1.408-.352-1.62-.21-.21-.844-.351-1.689-.351-.634 0-1.126.07-1.338.21-.21.142-.352.423-.352.846v.21h-1.055c0-.914.281-1.477.774-1.759.352-.211 1.056-.282 2.041-.282 1.127 0 1.901.141 2.323.423.563.352.845 1.056.845 2.112v4.716h-.986l.07-.915c-.28.422-.492.704-.844.845-.281.14-.844.21-1.548.21-.986 0-1.69-.14-2.042-.422-.493-.352-.774-.985-.774-1.9 0-.845.211-1.479.704-1.76.422-.282 1.056-.422 1.97-.422.846 0 1.409.07 1.69.14.141.212.423.423.563.704zm0 1.408c0-.633-.14-.985-.422-1.197-.282-.14-.915-.21-1.9-.21-.564 0-.986.07-1.197.21-.282.212-.423.493-.423.986 0 .563.141.986.352 1.197.211.21.704.352 1.267.352.845 0 1.408-.07 1.69-.212.422-.07.633-.492.633-1.126zm4.576-2.252v4.364h-1.056v-7.11h.986v.915c.281-.422.633-.704 1.055-.844.352-.141.845-.212 1.408-.212.986 0 1.62.212 2.042.564.352.352.563 1.056.563 1.97v4.717h-1.056V23.51c0-.704-.14-1.196-.352-1.407-.211-.212-.704-.352-1.408-.352s-1.267.14-1.619.492c-.352.212-.563.775-.563 1.479zm12.319 1.759h1.056c0 1.056-.211 1.83-.704 2.183-.422.352-1.197.563-2.323.563-1.197 0-1.971-.282-2.393-.775-.423-.492-.634-1.478-.634-2.886 0-1.408.211-2.393.634-2.886.422-.493 1.196-.774 2.393-.774.985 0 1.69.14 2.182.422.563.352.845.915.845 1.76v.211h-1.056c0-.563-.14-.985-.352-1.197-.282-.21-.774-.352-1.619-.352-.774 0-1.338.141-1.549.493-.21.352-.352 1.127-.352 2.253 0 1.126.141 1.9.423 2.252.281.352.774.564 1.548.564.845 0 1.408-.141 1.62-.352.21-.212.281-.704.281-1.479zm9.292-.774h-5.139c0 1.056.141 1.76.423 2.112.281.352.774.493 1.619.493.844 0 1.407-.07 1.619-.212.281-.14.352-.492.352-.985v-.211h1.056c0 .985-.282 1.619-.775 1.9-.422.282-1.196.423-2.323.423-1.196 0-2.041-.282-2.464-.775-.422-.492-.633-1.478-.633-2.956 0-1.408.211-2.323.704-2.886.493-.563 1.267-.775 2.393-.775 1.127 0 1.9.282 2.394.775.492.492.704 1.337.704 2.604l.07.493zm-1.056-.845c0-.844-.14-1.407-.422-1.69-.282-.351-.845-.492-1.62-.492-.774 0-1.266.14-1.548.493-.282.352-.422.915-.422 1.69h4.012zm59.482-3.449c-.493.211-1.408.493-2.604.493-2.816 0-4.858-1.76-4.858-4.998 0-3.098 2.112-5.21 5.139-5.21 1.267 0 2.042.282 2.323.423l-.281 1.056a5.116 5.116 0 00-1.971-.422c-2.323 0-3.872 1.478-3.872 4.082 0 2.394 1.408 3.943 3.801 3.943.774 0 1.549-.141 2.112-.423l.211 1.056zm2.886-9.574v9.855h-1.267V10.84h1.267zm2.183.141c.563-.14 1.408-.211 2.323-.211 1.267 0 2.111.211 2.745.704.493.352.845.986.845 1.76 0 .985-.634 1.76-1.69 2.182.915.211 2.042.985 2.042 2.464 0 .845-.352 1.478-.845 1.97-.704.634-1.83.916-3.449.916-.915 0-1.549-.07-1.971-.14V10.98zm1.337 4.013h1.126c1.338 0 2.112-.704 2.112-1.69 0-1.126-.844-1.619-2.182-1.619-.563 0-.915.07-1.126.07v3.239h.07zm0 4.786c.282.07.634.07 1.056.07 1.338 0 2.534-.492 2.534-1.9 0-1.337-1.126-1.9-2.534-1.9h-1.056v3.73z" fill="#000"/></g><defs><clipPath id="clip0"><path fill="#fff" d="M0 0h173.449v34H0z"/></clipPath></defs></svg>