<svg width="24" height="24" viewBox="0 0 24 24" fill="none" xmlns="http://www.w3.org/2000/svg">
<path fill-rule="evenodd" clip-rule="evenodd" d="M0.600098 2.50494C0.600098 1.99974 0.800785 1.51524 1.15801 1.15801C1.51524 0.800788 1.99974 0.6001 2.50493 0.6001L21.4932 0.6001C21.7435 0.599691 21.9915 0.648667 22.2229 0.744224C22.4543 0.83978 22.6646 0.980041 22.8418 1.15698C23.0189 1.33391 23.1594 1.54404 23.2552 1.77535C23.351 2.00665 23.4002 2.25458 23.4001 2.50494L23.4001 21.4932C23.4004 21.7436 23.3513 21.9916 23.2556 22.223C23.1599 22.4544 23.0196 22.6647 22.8426 22.8418C22.6655 23.0189 22.4553 23.1594 22.224 23.2552C21.9926 23.351 21.7446 23.4002 21.4942 23.4001L2.50493 23.4001C2.2547 23.4001 2.00692 23.3508 1.77575 23.255C1.54457 23.1592 1.33454 23.0188 1.15764 22.8418C0.980751 22.6648 0.840463 22.4547 0.744797 22.2235C0.649131 21.9923 0.599962 21.7445 0.600098 21.4942L0.600098 2.50494Z" fill="#3D3D3D"/>
<path d="M3 19.1998H21V4.7998H3V19.1998ZM3 4.7998L12 11.9998L21 4.7998" fill="white"/>
<path d="M3 4.7998L12 11.9998L21 4.7998M3 19.1998H21V4.7998H3V19.1998Z" stroke="#3D3D3D" stroke-width="2" stroke-linecap="round" stroke-linejoin="round"/>
</svg>
