<svg width="40" height="40" viewBox="0 0 40 40" fill="none" xmlns="http://www.w3.org/2000/svg">
<path d="M35.8218 1.49988L35.8226 1.49988C36.1741 1.49931 36.5223 1.56807 36.8472 1.70224C37.1721 1.8364 37.4674 2.03333 37.7161 2.28175C37.9648 2.53018 38.162 2.82521 38.2965 3.14997C38.431 3.47472 38.5002 3.82282 38.5 4.17434V4.17461L38.5 35.8217V35.8222C38.5004 36.1739 38.4314 36.5221 38.2971 36.847C38.1628 37.172 37.9657 37.4673 37.7171 37.716C37.4685 37.9647 37.1734 38.1619 36.8485 38.2964C36.5236 38.4309 36.1754 38.5001 35.8238 38.4999H35.8235L4.17473 38.4999C3.82335 38.4999 3.47542 38.4306 3.15082 38.2961C2.82621 38.1616 2.53129 37.9645 2.2829 37.716L1.92925 38.0694L2.28289 37.716C2.03451 37.4674 1.83752 37.1724 1.70318 36.8477C1.56885 36.523 1.49981 36.1751 1.5 35.8237V35.8234L1.5 4.17461C1.5 3.46523 1.7818 2.7849 2.28341 2.28329C2.78502 1.78168 3.46535 1.49988 4.17473 1.49988L35.8218 1.49988ZM16.0411 14.9882H15.5411V15.4882L15.5411 33.6937V34.1937H16.0411H21.5822H22.0822V33.6937V24.8742C22.0822 23.4438 22.348 22.3563 22.8604 21.6382C23.3516 20.9498 24.1145 20.5379 25.2872 20.5379C25.6789 20.5379 25.9831 20.6274 26.2264 20.7813C26.4711 20.9361 26.6853 21.1759 26.864 21.5246C27.23 22.2391 27.4161 23.3504 27.4161 24.8742V33.6937V34.1937H27.9161L33.4555 34.1937H33.9555V33.6937L33.9555 23.6375C33.9555 20.9118 33.6364 18.6739 32.5301 17.1181C31.392 15.5176 29.5096 14.7499 26.6845 14.7499C24.4855 14.7499 22.7763 15.5051 21.6866 16.5679V15.4882V14.9882H21.1866H16.0411ZM6.04109 33.4571V33.9571H6.54109H12.0822H12.5822V33.4571L12.5822 15.2499V14.7499H12.0822L6.54109 14.7499H6.04109V15.2499L6.04109 33.4553V33.4571ZM13.0917 10.8827C13.2905 10.3795 13.3868 9.84152 13.3749 9.30051C13.3515 8.23859 12.9132 7.22804 12.1539 6.48528C11.3946 5.74252 10.3747 5.3266 9.3125 5.3266C8.25032 5.3266 7.23037 5.74252 6.47107 6.48528C5.71177 7.22804 5.27351 8.23859 5.25012 9.30051C5.23821 9.84152 5.33448 10.3795 5.53328 10.8827C5.73208 11.386 6.02941 11.8446 6.40781 12.2314C6.78622 12.6182 7.23808 12.9256 7.73688 13.1354C8.23568 13.3452 8.77136 13.4533 9.3125 13.4533C9.85364 13.4533 10.3893 13.3452 10.8881 13.1354C11.3869 12.9256 11.8388 12.6182 12.2172 12.2314C12.5956 11.8446 12.8929 11.386 13.0917 10.8827Z" fill="white" stroke="white"/>
</svg>
