<svg width="40" height="40" viewBox="0 0 40 40" fill="none" xmlns="http://www.w3.org/2000/svg">
<path d="M35.8218 1.49988L35.8226 1.49988C36.1741 1.49931 36.5223 1.56807 36.8472 1.70224C37.1721 1.8364 37.4674 2.03333 37.7161 2.28175L38.0694 1.92801L37.7161 2.28176C37.9648 2.53018 38.162 2.82521 38.2965 3.14997L38.7585 2.95863L38.2965 3.14997C38.431 3.47472 38.5002 3.82282 38.5 4.17434V4.17461L38.5 35.8217V35.8222C38.5004 36.1739 38.4314 36.5221 38.2971 36.847C38.1628 37.172 37.9657 37.4673 37.7171 37.716C37.4685 37.9647 37.1734 38.1619 36.8485 38.2964C36.5236 38.4309 36.1754 38.5001 35.8238 38.4999H35.8235L4.17473 38.4999C3.82335 38.4999 3.47542 38.4306 3.15082 38.2961C2.82621 38.1616 2.53128 37.9645 2.28289 37.716C2.03451 37.4674 1.83752 37.1724 1.70318 36.8477C1.56885 36.523 1.49981 36.1751 1.5 35.8237V35.8234L1.5 4.17461C1.5 3.46523 1.7818 2.7849 2.28341 2.28329C2.78502 1.78168 3.46535 1.49988 4.17473 1.49988L35.8218 1.49988Z" fill="white" stroke="white"/>
<path d="M5 32H35V8H5V32ZM5 8L20 20L35 8" fill="#3D3D3D"/>
<path d="M5 8L20 20L35 8M5 32H35V8H5V32Z" stroke="white" stroke-width="2" stroke-linecap="round" stroke-linejoin="round"/>
</svg>
