<svg width="24" height="24" viewBox="0 0 24 24" fill="none" xmlns="http://www.w3.org/2000/svg">
<path fill-rule="evenodd" clip-rule="evenodd" d="M0.600098 2.50494C0.600098 1.99974 0.800785 1.51524 1.15801 1.15801C1.51524 0.800788 1.99974 0.6001 2.50493 0.6001L21.4932 0.6001C21.7435 0.599691 21.9915 0.648667 22.2229 0.744224C22.4543 0.83978 22.6646 0.980041 22.8418 1.15698C23.0189 1.33391 23.1594 1.54404 23.2552 1.77535C23.351 2.00665 23.4002 2.25458 23.4001 2.50494L23.4001 21.4932C23.4004 21.7436 23.3513 21.9916 23.2556 22.223C23.1599 22.4544 23.0196 22.6647 22.8426 22.8418C22.6655 23.0189 22.4553 23.1594 22.224 23.2552C21.9926 23.351 21.7446 23.4002 21.4942 23.4001L2.50493 23.4001C2.2547 23.4001 2.00692 23.3508 1.77575 23.255C1.54457 23.1592 1.33454 23.0188 1.15765 22.8418C0.980751 22.6648 0.840463 22.4547 0.744797 22.2235C0.649131 21.9923 0.599962 21.7445 0.600098 21.4942L0.600098 2.50494Z" fill="white"/>
<path fill-rule="evenodd" clip-rule="evenodd" d="M0.600098 2.50494C0.600098 1.99974 0.800785 1.51524 1.15801 1.15801C1.51524 0.800788 1.99974 0.6001 2.50493 0.6001L21.4932 0.6001C21.7435 0.599691 21.9915 0.648667 22.2229 0.744224C22.4543 0.83978 22.6646 0.980041 22.8418 1.15698C23.0189 1.33391 23.1594 1.54404 23.2552 1.77535C23.351 2.00665 23.4002 2.25458 23.4001 2.50494L23.4001 21.4932C23.4004 21.7436 23.3513 21.9916 23.2556 22.223C23.1599 22.4544 23.0196 22.6647 22.8426 22.8418C22.6655 23.0189 22.4553 23.1594 22.224 23.2552C21.9926 23.351 21.7446 23.4002 21.4942 23.4001L2.50493 23.4001C2.2547 23.4001 2.00692 23.3508 1.77575 23.255C1.54457 23.1592 1.33454 23.0188 1.15764 22.8418C0.980751 22.6648 0.840463 22.4547 0.744797 22.2235C0.649131 21.9923 0.599962 21.7445 0.600098 21.4942L0.600098 2.50494ZM9.62475 9.29312H12.7121V10.8435C13.1577 9.95225 14.2977 9.1501 16.0108 9.1501C19.2951 9.1501 20.0734 10.9254 20.0734 14.1827L20.0734 20.2164H16.7498L16.7498 14.9247C16.7498 13.0696 16.3041 12.0229 15.1724 12.0229C13.6023 12.0229 12.9494 13.1515 12.9494 14.9247V20.2164H9.62475V9.29312ZM3.92475 20.0744H7.24941L7.24941 9.1501H3.92475L3.92475 20.0734V20.0744ZM7.7251 5.58708C7.73137 5.87174 7.68071 6.15479 7.57611 6.41961C7.47151 6.68443 7.31506 6.92569 7.11596 7.12922C6.91685 7.33276 6.67909 7.49448 6.41664 7.60489C6.15419 7.7153 5.87233 7.77217 5.5876 7.77217C5.30287 7.77217 5.02101 7.7153 4.75855 7.60489C4.4961 7.49448 4.25835 7.33276 4.05924 7.12922C3.86013 6.92569 3.70369 6.68443 3.59909 6.41961C3.49448 6.15479 3.44383 5.87174 3.4501 5.58708C3.4624 5.02833 3.69301 4.49661 4.09252 4.10579C4.49204 3.71498 5.02871 3.49613 5.5876 3.49613C6.14648 3.49613 6.68315 3.71498 7.08267 4.10579C7.48219 4.49661 7.71279 5.02833 7.7251 5.58708Z" fill="#3D3D3D"/>
</svg>
